<?xml version="1.0" encoding="utf-8"?>
<svg xmlns="http://www.w3.org/2000/svg" xmlns:svg="http://www.w3.org/2000/svg" version="1.1" viewBox="0 0 1400 340">
	<title>The titlepage for the Standard Ebooks edition of The Valley of Fear, by Arthur Conan Doyle</title>
	<g aria-label="THE VALLEY OF FEAR">
		<path d="m 158.24853,68.245613 h 18.33918 V 130 h 17.59064 V 68.245613 h 18.33919 V 52.807016 h -54.26901 z"/>
		<path d="m 241.44297,99.029239 h 24.88889 V 130 h 17.59065 V 52.807016 H 266.33186 V 83.590642 H 241.44297 V 52.807016 H 223.85233 V 130 h 17.59064 z"/>
		<path d="M 344.28801,52.807016 H 300.12427 V 130 h 44.16374 v -15.4386 h -26.5731 V 99.029239 H 343.1652 V 83.590642 H 317.71491 V 68.245613 h 26.5731 z"/>
		<path d="m 406.08479,130 h 13.84795 L 452.30701,52.807016 H 432.47076 L 413.00877,103.52047 393.54678,52.807016 h -19.83626 z"/>
		<path d="m 490.84211,52.807016 h -16.2807 L 443.40352,130 h 18.90058 l 5.7076,-15.4386 h 29.38012 L 503.09942,130 h 18.90059 z m 0.56141,46.31579 h -17.40351 l 8.60818,-22.45614 h 0.18714 z"/>
		<path d="M 547.51024,52.807016 H 529.9196 V 130 h 44.16374 v -15.4386 h -26.5731 z"/>
		<path d="M 605.32457,52.807016 H 587.73393 V 130 h 44.16374 v -15.4386 h -26.5731 z"/>
		<path d="M 689.712,52.807016 H 645.54826 V 130 H 689.712 V 114.5614 H 663.1389 V 99.029239 h 25.4503 V 83.590642 H 663.1389 V 68.245613 h 26.5731 z"/>
		<path d="m 696.40348,52.807016 28.44445,42.5731 V 130 h 17.59064 V 95.380116 l 28.44445,-42.5731 h -21.1462 L 733.64325,77.508771 717.54968,52.807016 Z"/>
		<path d="m 805.84357,91.356724 c 0,22.549706 16.09356,40.046786 38.92397,40.046786 22.17544,0 38.83041,-17.49708 38.83041,-40.046786 0,-22.549708 -17.40351,-39.953217 -38.83041,-39.953217 -21.23976,0 -38.92397,17.403509 -38.92397,39.953217 z m 18.99415,0 c 0,-11.508772 6.36257,-23.017544 19.92982,-23.017544 13.66082,0 19.83626,11.508772 19.83626,23.017544 0,11.508776 -5.80117,23.017546 -19.83626,23.017546 -14.40935,0 -19.92982,-11.50877 -19.92982,-23.017546 z"/>
		<path d="M 940.99121,52.807016 H 896.35963 V 130 h 17.59065 V 99.029239 h 24.98245 V 83.590642 H 913.95028 V 68.245613 h 27.04093 z"/>
		<path d="M 1029.5731,52.807016 H 984.94154 V 130 h 17.59066 V 99.029239 h 24.9824 V 83.590642 h -24.9824 V 68.245613 h 27.0409 z"/>
		<path d="m 1087.1024,52.807016 h -44.1638 V 130 h 44.1638 v -15.4386 h -26.5731 V 99.029239 h 25.4502 V 83.590642 h -25.4502 V 68.245613 h 26.5731 z"/>
		<path d="m 1141.9679,52.807016 h -16.2807 L 1094.5293,130 h 18.9006 l 5.7076,-15.4386 h 29.3801 L 1154.2252,130 h 18.9006 z m 0.5614,46.31579 h -17.4035 l 8.6082,-22.45614 h 0.1871 z"/>
		<path d="M 1181.0454,52.807016 V 130 h 17.5906 V 99.497075 L 1222.215,130 h 22.3625 l -26.5731,-31.906433 c 9.4503,-2.994152 15.8129,-10.760234 15.8129,-22.362574 0,-15.157895 -10.8538,-22.923977 -25.1696,-22.923977 z m 17.5906,34.245615 V 66.842104 h 2.0585 c 6.6433,0 14.5965,0.467836 14.5965,10.105263 0,9.637428 -7.9532,10.105264 -14.5965,10.105264 z"/>
	</g>
	<g aria-label="ARTHUR CONAN DOYLE">
		<path d="M 257.52029,232.10526 H 245.30976 L 221.94134,290 h 14.17544 l 4.2807,-11.57895 h 22.03509 L 266.71327,290 h 14.17544 z m 0.42105,34.73685 H 244.88871 L 251.34485,250 h 0.14035 z"/>
		<path d="M 288.0784,232.10526 V 290 h 13.19299 V 267.12281 L 318.9556,290 h 16.77193 L 315.7977,266.07018 c 7.08772,-2.24562 11.85965,-8.07018 11.85965,-16.77193 0,-11.36842 -8.14035,-17.19299 -18.87719,-17.19299 z m 13.19299,25.68421 v -15.15789 h 1.54386 c 4.98245,0 10.94736,0.35088 10.94736,7.57895 0,7.22807 -5.96491,7.57894 -10.94736,7.57894 z"/>
		<path d="m 336.98958,243.68421 h 13.75439 V 290 h 13.19298 v -46.31579 h 13.75439 v -11.57895 h -40.70176 z"/>
		<path d="m 400.63542,266.77193 h 18.66666 V 290 h 13.19298 v -57.89474 h -13.19298 v 23.08772 H 400.63542 V 232.10526 H 387.44243 V 290 h 13.19299 z"/>
		<path d="m 490.38761,232.10526 h -13.19298 v 33.47369 c 0,9.68421 -2.94737,12.49123 -9.40351,12.49123 -6.45614,0 -9.40351,-2.80702 -9.40351,-12.49123 v -33.47369 h -13.19298 v 37.33334 c 0,14.31579 7.85965,21.61403 22.59649,21.61403 14.73684,0 22.59649,-7.29824 22.59649,-21.61403 z"/>
		<path d="M 503.11678,232.10526 V 290 h 13.19298 V 267.12281 L 533.99397,290 h 16.77193 l -19.92982,-23.92982 c 7.08772,-2.24562 11.85965,-8.07018 11.85965,-16.77193 0,-11.36842 -8.14035,-17.19299 -18.8772,-17.19299 z m 13.19298,25.68421 v -15.15789 h 1.54386 c 4.98246,0 10.94737,0.35088 10.94737,7.57895 0,7.22807 -5.96491,7.57894 -10.94737,7.57894 z"/>
		<path d="m 611.22095,278.07018 c -13.26316,0 -19.08772,-9.26316 -19.08772,-17.05264 0,-7.71929 5.82456,-16.98245 19.08772,-16.98245 6.73684,0 11.36842,3.57895 11.36842,3.57895 l 5.61403,-11.22807 c 0,0 -6.45614,-5.33334 -19.01754,-5.33334 -16.42105,0 -31.36842,13.47369 -31.36842,30.10527 0,16.5614 15.01754,29.89473 31.36842,29.89473 12.5614,0 19.01754,-5.33333 19.01754,-5.33333 l -5.61403,-11.22807 c 0,0 -4.63158,3.57895 -11.36842,3.57895 z"/>
		<path d="m 635.72314,261.01754 c 0,16.91228 12.07017,30.03509 29.19298,30.03509 16.63158,0 29.12281,-13.12281 29.12281,-30.03509 0,-16.91228 -13.05263,-29.96491 -29.12281,-29.96491 -15.92982,0 -29.19298,13.05263 -29.19298,29.96491 z m 14.24561,0 c 0,-8.63157 4.77193,-17.26315 14.94737,-17.26315 10.24562,0 14.87719,8.63158 14.87719,17.26315 0,8.63158 -4.35087,17.26316 -14.87719,17.26316 -10.80702,0 -14.94737,-8.63158 -14.94737,-17.26316 z"/>
		<path d="m 718.05317,254.07018 h 0.14035 L 741.21107,290 h 13.19298 v -57.89474 h -13.19298 v 35.92983 h -0.14036 L 718.05317,232.10526 H 704.86019 V 290 h 13.19298 z"/>
		<path d="M 797.24069,232.10526 H 785.03016 L 761.66174,290 h 14.17544 l 4.2807,-11.57895 h 22.03509 L 806.43367,290 h 14.17544 z m 0.42105,34.73685 H 784.60911 L 791.06525,250 h 0.14035 z"/>
		<path d="m 840.99177,254.07018 h 0.14035 L 864.14966,290 h 13.19299 v -57.89474 h -13.19299 v 35.92983 h -0.14035 L 840.99177,232.10526 H 827.79879 V 290 h 13.19298 z"/>
		<path d="M 914.96438,232.10526 V 290 h 16.77193 c 15.92982,0 29.19298,-12.07018 29.19298,-28.98246 0,-16.8421 -13.33334,-28.91228 -29.19298,-28.91228 z m 13.19298,46.10527 v -34.31579 h 2.03509 c 9.82456,0 16.49122,7.50877 16.49122,17.19298 -0.0702,9.68421 -6.73684,17.12281 -16.49122,17.12281 z"/>
		<path d="m 969.17709,261.01754 c 0,16.91228 12.07017,30.03509 29.19298,30.03509 16.63153,0 29.12283,-13.12281 29.12283,-30.03509 0,-16.91228 -13.0527,-29.96491 -29.12283,-29.96491 -15.92982,0 -29.19298,13.05263 -29.19298,29.96491 z m 14.24561,0 c 0,-8.63157 4.77193,-17.26315 14.94737,-17.26315 10.24563,0 14.87723,8.63158 14.87723,17.26315 0,8.63158 -4.3509,17.26316 -14.87723,17.26316 -10.80702,0 -14.94737,-8.63158 -14.94737,-17.26316 z"/>
		<path d="m 1031.9984,232.10526 21.3333,31.92983 V 290 h 13.193 v -25.96491 l 21.3333,-31.92983 h -15.8596 l -12.0702,18.52632 -12.0702,-18.52632 z"/>
		<path d="m 1108.1793,232.10526 h -13.193 V 290 h 33.1228 v -11.57895 h -19.9298 z"/>
		<path d="m 1172.7199,232.10526 h -33.1228 V 290 h 33.1228 V 278.42105 H 1152.79 v -11.64912 h 19.0878 V 255.19298 H 1152.79 v -11.50877 h 19.9299 z"/>
	</g>
</svg>
